<?xml version="1.0" encoding="UTF-8"?> <svg xmlns="http://www.w3.org/2000/svg" width="1754" height="1240" viewBox="0 0 1754 1240" fill="none"> <g clip-path="url(#clip0_14_57)"> <rect width="1754" height="1240" fill="#372579"></rect> <path d="M18.6 272V62H76.8L160.8 199.1H130.2L211.8 62H270L270.6 272H206.1L205.5 159.2H215.7L159.9 253.1H128.7L70.5 159.2H83.1V272H18.6ZM355.167 272V101.6L370.467 116.9H293.667V62H486.267V116.9H409.467L424.767 101.6V272H355.167ZM538.416 217.1C550.816 220.3 560.516 221.4 567.516 220.4C574.516 219.2 580.716 214.9 586.116 207.5L596.316 193.1L602.316 186.5L663.216 62H731.616L647.316 220.1C638.116 237.3 627.016 250.7 614.016 260.3C601.216 269.7 587.016 275.1 571.416 276.5C555.816 277.9 539.316 275.1 521.916 268.1L538.416 217.1ZM601.416 242L503.616 62H578.316L639.816 193.1L601.416 242ZM848.7 276.8C831.9 276.8 816.3 274.2 801.9 269C787.7 263.6 775.3 256 764.7 246.2C754.3 236.4 746.2 224.8 740.4 211.4C734.6 198 731.7 183.2 731.7 167C731.7 150.8 734.6 136 740.4 122.6C746.2 109.2 754.3 97.6 764.7 87.8C775.3 78 787.7 70.5 801.9 65.3C816.3 59.9 831.9 57.2 848.7 57.2C869.3 57.2 887.5 60.8 903.3 68C919.3 75.2 932.5 85.6 942.9 99.2L898.2 139.1C892 131.3 885.1 125.3 877.5 121.1C870.1 116.7 861.7 114.5 852.3 114.5C844.9 114.5 838.2 115.7 832.2 118.1C826.2 120.5 821 124 816.6 128.6C812.4 133.2 809.1 138.8 806.7 145.4C804.3 151.8 803.1 159 803.1 167C803.1 175 804.3 182.3 806.7 188.9C809.1 195.3 812.4 200.8 816.6 205.4C821 210 826.2 213.5 832.2 215.9C838.2 218.3 844.9 219.5 852.3 219.5C861.7 219.5 870.1 217.4 877.5 213.2C885.1 208.8 892 202.7 898.2 194.9L942.9 234.8C932.5 248.2 919.3 258.6 903.3 266C887.5 273.2 869.3 276.8 848.7 276.8ZM964.291 272V62H1033.89V171.2L1106.19 62H1172.79V272H1103.19V163.1L1031.19 272H964.291Z" fill="#2A006D"></path> <path d="M618.1 974L660.1 764H717.7L773.8 901.1H743.2L851.2 764H911.5L870.1 974H805.6L827.5 861.2L837.7 860.6L765.1 955.1H733.9L693.1 860.3L705.1 861.2L682.6 974H618.1ZM954.667 974L987.967 803.6L1000.27 818.9H924.367L935.167 764H1127.77L1116.97 818.9H1039.27L1057.57 803.6L1024.27 974H954.667ZM1145.42 920C1153.42 922.2 1160.32 923.2 1166.12 923C1172.12 922.6 1177.52 921.1 1182.32 918.5C1187.32 915.9 1191.92 912.1 1196.12 907.1L1209.02 895.1L1216.52 888.5L1303.22 764H1373.12L1257.02 924.5C1244.42 941.7 1230.82 954.8 1216.22 963.8C1201.82 972.8 1186.72 977.7 1170.92 978.5C1155.12 979.5 1139.12 976.5 1122.92 969.5L1145.42 920ZM1207.82 944L1145.12 764H1218.32L1254.32 895.1L1207.82 944ZM1460.19 978.8C1438.59 978.8 1419.69 974.9 1403.49 967.1C1387.29 959.1 1374.69 948.1 1365.69 934.1C1356.89 919.9 1352.49 903.5 1352.49 884.9C1352.49 866.5 1355.69 849.6 1362.09 834.2C1368.69 818.8 1377.89 805.5 1389.69 794.3C1401.49 783.1 1415.49 774.5 1431.69 768.5C1447.89 762.3 1465.69 759.2 1485.09 759.2C1505.29 759.2 1523.19 762.8 1538.79 770C1554.39 777.2 1565.99 787.6 1573.59 801.2L1522.59 841.1C1518.19 833.3 1512.49 827.3 1505.49 823.1C1498.49 818.7 1490.19 816.5 1480.59 816.5C1472.19 816.5 1464.49 818.1 1457.49 821.3C1450.69 824.3 1444.79 828.7 1439.79 834.5C1434.79 840.1 1430.89 846.8 1428.09 854.6C1425.29 862.4 1423.89 871 1423.89 880.4C1423.89 888.6 1425.69 895.8 1429.29 902C1432.89 908.2 1437.89 913 1444.29 916.4C1450.89 919.8 1458.49 921.5 1467.09 921.5C1475.29 921.5 1483.29 919.6 1491.09 915.8C1499.09 912 1506.69 905.8 1513.89 897.2L1555.59 937.1C1542.79 952.7 1528.49 963.6 1512.69 969.8C1497.09 975.8 1479.59 978.8 1460.19 978.8ZM1568.48 974L1610.48 764H1680.08L1657.58 873.2L1751.48 764H1818.98L1776.98 974H1707.38L1730.18 865.1L1636.28 974H1568.48Z" fill="#2A006D"></path> <path d="M1265.86 994.353C1266.29 994.353 1266.5 994.998 1266.5 996.288C1266.5 997.579 1266.29 998.224 1265.86 998.224C1258.97 998.224 1253.92 999.729 1250.7 1002.74C1247.47 1005.53 1245.21 1011.23 1243.92 1019.83L1221.67 1169.81C1221.02 1173.69 1220.7 1177.02 1220.7 1179.81C1220.7 1184.76 1221.88 1188.09 1224.25 1189.81C1226.83 1191.32 1231.34 1192.07 1237.79 1192.07C1238.44 1192.07 1238.76 1192.72 1238.76 1194.01C1238.76 1195.3 1238.44 1195.94 1237.79 1195.94C1231.77 1195.94 1226.94 1195.83 1223.28 1195.62L1201.99 1195.3L1181.03 1195.62C1177.37 1195.83 1172.43 1195.94 1166.19 1195.94C1165.55 1195.94 1165.22 1195.3 1165.22 1194.01C1165.22 1192.72 1165.55 1192.07 1166.19 1192.07C1172.21 1192.07 1176.73 1191.53 1179.74 1190.46C1182.75 1189.38 1184.9 1187.34 1186.19 1184.33C1187.69 1181.32 1188.98 1176.48 1190.06 1169.81L1212.96 1016.29L1125.55 1193.68C1125.12 1194.54 1124.37 1194.97 1123.29 1194.97C1122 1194.97 1121.14 1194.44 1120.71 1193.36L1085.23 1024.03L1061.69 1154.01C1060.83 1158.31 1060.4 1162.72 1060.4 1167.23C1060.4 1175.19 1061.9 1181.32 1064.91 1185.62C1068.14 1189.92 1072.65 1192.07 1078.46 1192.07C1079.11 1192.07 1079.43 1192.72 1079.43 1194.01C1079.43 1195.3 1079.11 1195.94 1078.46 1195.94C1073.51 1195.94 1069.64 1195.83 1066.85 1195.62L1049.43 1195.3L1034.27 1195.62C1031.48 1195.83 1027.28 1195.94 1021.69 1195.94C1021.05 1195.94 1020.73 1195.3 1020.73 1194.01C1020.73 1192.72 1021.05 1192.07 1021.69 1192.07C1029 1192.07 1035.45 1188.74 1041.05 1182.07C1046.64 1175.41 1050.51 1166.37 1052.66 1154.98L1079.75 1009.51C1075.02 1001.99 1067.39 998.224 1056.85 998.224C1056.2 998.224 1055.88 997.579 1055.88 996.288C1055.88 994.998 1056.2 994.353 1056.85 994.353C1060.08 994.353 1062.66 994.461 1064.59 994.676L1077.49 994.998L1096.52 994.676C1098.89 994.461 1101.58 994.353 1104.59 994.353C1106.95 994.353 1108.78 995.428 1110.07 997.579C1111.57 999.729 1113.08 1004.24 1114.58 1011.13L1142.65 1144.33L1211.67 1002.42C1212.74 1000.05 1214.36 998.116 1216.51 996.611C1218.66 995.106 1221.02 994.353 1223.6 994.353C1226.61 994.353 1229.09 994.461 1231.02 994.676L1244.57 994.998L1257.15 994.676C1259.08 994.461 1261.99 994.353 1265.86 994.353ZM1293.33 1195.94C1292.9 1195.94 1292.69 1195.3 1292.69 1194.01C1292.69 1192.72 1292.9 1192.07 1293.33 1192.07C1301.29 1192.07 1307.2 1191.53 1311.07 1190.46C1315.16 1189.38 1318.17 1187.34 1320.1 1184.33C1322.04 1181.1 1323.65 1176.27 1324.94 1169.81L1351.07 1020.48C1351.93 1015.32 1352.36 1012.09 1352.36 1010.8C1352.36 1007.36 1351.5 1005 1349.78 1003.71C1348.06 1002.42 1345.15 1001.77 1341.07 1001.77H1337.2C1330.53 1001.77 1323.54 1004.14 1316.23 1008.87C1308.92 1013.38 1302.36 1019.51 1296.56 1027.25C1290.75 1034.78 1286.56 1043.06 1283.98 1052.09C1283.76 1052.73 1283.01 1052.95 1281.72 1052.73C1280.65 1052.52 1280.22 1052.09 1280.43 1051.44C1282.15 1045.21 1284.73 1034.89 1288.17 1020.48C1291.61 1006.07 1294.08 994.998 1295.59 987.257C1295.8 986.612 1296.56 986.397 1297.85 986.612C1299.14 986.612 1299.68 986.935 1299.46 987.58C1298.82 992.095 1303.01 994.353 1312.04 994.353C1327.95 994.998 1347.63 995.321 1371.06 995.321C1382.03 995.321 1394.18 995.106 1407.51 994.676L1427.83 994.353C1434.28 994.353 1439.12 993.816 1442.35 992.74C1445.57 991.665 1447.83 989.515 1449.12 986.29C1449.55 985.645 1450.3 985.43 1451.38 985.645C1452.45 985.645 1452.88 986.075 1452.67 986.935C1450.73 993.816 1448.04 1005 1444.6 1020.48C1441.38 1035.75 1439.44 1046.07 1438.8 1051.44C1438.58 1052.3 1437.83 1052.73 1436.54 1052.73C1435.25 1052.52 1434.71 1051.98 1434.93 1051.12C1435.57 1047.46 1435.89 1044.02 1435.89 1040.8C1435.89 1029.62 1432.78 1020.37 1426.54 1013.06C1420.31 1005.53 1412.24 1001.77 1402.35 1001.77H1398.8C1393.21 1001.77 1389.45 1003.06 1387.51 1005.64C1385.79 1008.01 1384.29 1013.17 1383 1021.12L1356.87 1169.81C1356.01 1174.98 1355.58 1178.31 1355.58 1179.81C1355.58 1184.76 1357.3 1188.09 1360.74 1189.81C1364.4 1191.32 1371.06 1192.07 1380.74 1192.07C1381.17 1192.07 1381.39 1192.72 1381.39 1194.01C1381.39 1195.3 1381.17 1195.94 1380.74 1195.94C1373.21 1195.94 1367.3 1195.83 1363 1195.62L1336.87 1195.3L1311.72 1195.62C1307.42 1195.83 1301.29 1195.94 1293.33 1195.94ZM1658.68 994.353C1659.33 994.353 1659.65 994.998 1659.65 996.288C1659.65 997.579 1659.33 998.224 1658.68 998.224C1651.59 998.224 1644.49 1000.91 1637.4 1006.29C1630.52 1011.66 1623.96 1019.3 1617.72 1029.19L1543.21 1151.11C1536.98 1161.21 1531.39 1171.75 1526.44 1182.72C1523.86 1188.09 1521.93 1191.64 1520.64 1193.36C1519.35 1195.08 1517.63 1195.94 1515.48 1195.94H1460.64C1459.78 1195.94 1459.35 1195.3 1459.35 1194.01C1459.35 1192.72 1459.78 1192.07 1460.64 1192.07C1472.9 1192.07 1486.12 1187.88 1500.32 1179.49C1514.72 1170.89 1526.33 1160.25 1535.15 1147.56L1496.77 1020.48C1494.62 1012.09 1492.15 1006.29 1489.35 1003.06C1486.77 999.836 1482.79 998.224 1477.42 998.224C1476.77 998.224 1476.45 997.579 1476.45 996.288C1476.45 994.998 1476.77 994.353 1477.42 994.353C1481.29 994.353 1484.08 994.461 1485.8 994.676C1491.39 995.106 1498.81 995.321 1508.06 995.321C1522.03 995.321 1533.54 995.106 1542.57 994.676C1544.93 994.461 1547.73 994.353 1550.96 994.353C1551.82 994.353 1552.25 994.998 1552.25 996.288C1552.25 997.579 1551.82 998.224 1550.96 998.224C1537.62 998.224 1530.96 1002.63 1530.96 1011.45C1530.96 1013.6 1531.28 1015.96 1531.93 1018.54L1558.37 1110.14L1609.01 1027.57C1612.67 1021.98 1614.5 1016.72 1614.5 1011.77C1614.5 1007.47 1612.99 1004.14 1609.98 1001.77C1606.97 999.406 1602.67 998.224 1597.08 998.224C1596.22 998.224 1595.79 997.579 1595.79 996.288C1595.79 994.998 1596.11 994.353 1596.76 994.353L1609.66 994.676C1616.97 995.106 1623.42 995.321 1629.01 995.321C1633.31 995.321 1638.69 995.106 1645.14 994.676L1658.68 994.353ZM1724.2 1199.81C1694.31 1199.81 1672.49 1192.07 1658.73 1176.59C1644.96 1160.89 1638.08 1141.43 1638.08 1118.21C1638.08 1111.33 1638.84 1103.59 1640.34 1094.99C1644.21 1073.7 1652.28 1055.21 1664.53 1039.51C1676.79 1023.6 1691.41 1011.56 1708.4 1003.38C1725.6 994.998 1743.34 990.805 1761.62 990.805C1770.22 990.805 1779.03 991.773 1788.06 993.708C1797.31 995.428 1804.51 997.579 1809.68 1000.16C1810.97 1001.02 1811.72 1001.88 1811.93 1002.74C1812.36 1003.6 1812.47 1005.21 1812.26 1007.58L1807.09 1050.8C1807.09 1051.44 1806.56 1051.77 1805.48 1051.77C1804.41 1051.77 1803.76 1051.44 1803.55 1050.8C1799.89 1034.67 1793.23 1022.09 1783.55 1013.06C1774.09 1004.03 1762.37 999.514 1748.39 999.514C1729.69 999.514 1713.88 1007.04 1700.98 1022.09C1688.29 1037.14 1680.12 1057.89 1676.47 1084.34C1675.18 1093.37 1674.53 1102.19 1674.53 1110.79C1674.53 1126.49 1676.57 1140.57 1680.66 1153.04C1684.74 1165.51 1690.66 1175.41 1698.4 1182.72C1706.35 1189.81 1715.6 1193.36 1726.14 1193.36C1736.89 1193.36 1747.85 1189.38 1759.04 1181.43C1770.22 1173.47 1782.04 1161.11 1794.52 1144.33C1794.73 1143.9 1795.16 1143.69 1795.81 1143.69C1796.45 1143.69 1796.99 1143.9 1797.42 1144.33C1798.06 1144.55 1798.28 1144.87 1798.06 1145.3L1789.36 1182.39C1788.71 1184.97 1788.06 1186.8 1787.42 1187.88C1786.77 1188.74 1785.48 1189.38 1783.55 1189.81C1764.2 1196.48 1744.41 1199.81 1724.2 1199.81ZM1994.46 1171.1C1993.59 1175.19 1993.16 1178.74 1993.16 1181.75C1993.16 1186.05 1994.46 1188.84 1997.04 1190.13C1999.83 1191.42 2005.1 1192.07 2012.84 1192.07C2013.27 1192.07 2013.48 1192.72 2013.48 1194.01C2013.48 1195.3 2013.27 1195.94 2012.84 1195.94C2005.74 1195.94 2000.15 1195.83 1996.07 1195.62L1974.46 1195.3L1948.01 1195.62C1944.35 1195.83 1939.52 1195.94 1933.5 1195.94C1933.06 1195.94 1932.85 1195.3 1932.85 1194.01C1933.06 1192.72 1933.39 1192.07 1933.82 1192.07C1940.91 1192.07 1946.29 1191.42 1949.94 1190.13C1953.6 1188.84 1956.29 1186.59 1958.01 1183.36C1959.73 1180.14 1961.13 1175.3 1962.2 1168.85L1985.1 1038.22L1840.93 1200.13C1840.5 1200.35 1839.74 1200.46 1838.67 1200.46C1837.81 1200.46 1837.06 1200.46 1836.41 1200.46C1835.34 1200.46 1834.15 1200.03 1832.86 1199.17C1831.57 1198.52 1831.03 1197.88 1831.25 1197.23L1862.54 1019.51C1863.4 1015.43 1863.83 1011.88 1863.83 1008.87C1863.83 1004.57 1862.43 1001.77 1859.63 1000.48C1856.84 998.976 1851.57 998.224 1843.83 998.224C1843.4 998.224 1843.18 997.794 1843.18 996.933C1843.18 995.213 1843.51 994.353 1844.15 994.353L1860.6 994.676C1870.06 995.106 1877.37 995.321 1882.53 995.321C1890.49 995.321 1899.41 995.106 1909.3 994.676L1923.17 994.353C1923.6 994.353 1923.82 994.998 1923.82 996.288C1923.82 997.579 1923.6 998.224 1923.17 998.224C1915.86 998.224 1910.38 998.869 1906.72 1000.16C1903.28 1001.45 1900.7 1003.71 1898.98 1006.93C1897.26 1010.16 1895.87 1015.1 1894.79 1021.77L1871.24 1153.69L2015.74 991.45C2016.17 991.235 2016.93 991.128 2018 991.128C2019.08 991.128 2019.83 991.128 2020.26 991.128C2021.33 991.128 2022.41 991.558 2023.48 992.418C2024.77 993.063 2025.31 993.708 2025.1 994.353L1994.46 1171.1Z" fill="#2A006D"></path> <path d="M151.5 1078.5L109.5 1153.5H67.5L25.5 1078.5V1195.5H-28.5V985.5H28.5L88.5 1096.5L148.5 985.5H205.5V1195.5H151.5V1078.5ZM343.617 1195.5H289.617V1027.5H226.617V985.5H406.617V1027.5H343.617V1195.5ZM490.052 1198.5C480.052 1198.5 469.752 1197.5 459.152 1195.5V1155H486.152C491.952 1155 495.952 1152.7 498.152 1148.1C499.152 1146.1 499.652 1144 499.652 1141.8C499.652 1139.4 499.152 1137.3 498.152 1135.5L415.652 985.5H475.652L529.652 1092L574.652 985.5H634.652L558.152 1150.5C551.152 1166.3 542.752 1178.1 532.952 1185.9C522.152 1194.3 507.852 1198.5 490.052 1198.5ZM802.922 1192.5C758.322 1196.5 721.322 1198.5 691.922 1198.5C672.322 1198.5 657.922 1193.9 648.722 1184.7C639.522 1175.5 634.922 1161.1 634.922 1141.5V1045.5C634.922 1024.5 639.622 1009.3 649.022 999.9C658.622 990.3 673.922 985.5 694.922 985.5H802.922V1027.5H706.922C694.922 1027.5 688.922 1033.5 688.922 1045.5V1141.5C688.922 1146.1 690.222 1149.8 692.822 1152.6C695.622 1155.2 699.122 1156.5 703.322 1156.5C707.522 1156.5 712.122 1156.5 717.122 1156.5C722.122 1156.3 727.322 1156.1 732.722 1155.9C738.122 1155.7 743.522 1155.5 748.922 1155.3C754.522 1155.1 761.622 1154.7 770.222 1154.1C779.022 1153.5 789.922 1152.8 802.922 1152V1192.5ZM1009.96 1195.5H955.957V1066.5L883.957 1195.5H826.957V985.5H880.957V1114.5L952.957 985.5H1009.96V1195.5Z" fill="#2A006D"></path> <path d="M1309.13 272L1257.56 103.982H1256.25C1256.44 107.986 1256.73 114.041 1257.12 122.146C1257.61 130.154 1258.05 138.699 1258.44 147.781C1258.83 156.863 1259.03 165.066 1259.03 172.391V272H1218.45V57.8398H1280.27L1330.95 221.609H1331.83L1385.59 57.8398H1447.41V272H1405.07V170.633C1405.07 163.895 1405.17 156.131 1405.37 147.342C1405.66 138.553 1406 130.203 1406.39 122.293C1406.78 114.285 1407.08 108.279 1407.27 104.275H1405.95L1350.73 272H1309.13ZM1584.08 272H1538.67V95.6328H1480.51V57.8398H1642.23V95.6328H1584.08V272ZM1859.16 57.8398L1792.81 209.305C1786.85 222.977 1780.5 234.744 1773.76 244.607C1767.03 254.373 1758.48 261.893 1748.13 267.166C1737.78 272.342 1724.2 274.93 1707.41 274.93C1702.13 274.93 1696.42 274.539 1690.27 273.758C1684.12 273.074 1678.4 272 1673.13 270.535V231.57C1678.01 233.426 1683.29 234.793 1688.95 235.672C1694.71 236.453 1700.13 236.844 1705.21 236.844C1711.85 236.844 1717.22 235.721 1721.32 233.475C1725.42 231.229 1728.7 228.201 1731.14 224.393C1733.58 220.584 1735.63 216.336 1737.29 211.648L1663.17 57.8398H1711.21L1751.21 150.564C1752.08 152.518 1753.21 155.154 1754.57 158.475C1756.04 161.697 1757.46 165.018 1758.82 168.436C1760.29 171.756 1761.41 174.686 1762.19 177.225H1763.8C1764.58 174.783 1765.61 171.854 1766.88 168.436C1768.25 164.92 1769.66 161.355 1771.13 157.742C1772.59 154.031 1773.91 150.711 1775.08 147.781L1812.29 57.8398H1859.16ZM1977.08 92.5566C1968.39 92.5566 1960.68 94.2656 1953.94 97.6836C1947.3 101.004 1941.68 105.838 1937.09 112.186C1932.6 118.533 1929.18 126.199 1926.84 135.184C1924.5 144.168 1923.32 154.275 1923.32 165.506C1923.32 180.643 1925.18 193.582 1928.89 204.324C1932.7 214.969 1938.56 223.123 1946.47 228.787C1954.38 234.354 1964.58 237.137 1977.08 237.137C1985.78 237.137 1994.47 236.16 2003.16 234.207C2011.95 232.254 2021.47 229.471 2031.72 225.857V263.943C2022.25 267.85 2012.92 270.633 2003.74 272.293C1994.56 274.051 1984.26 274.93 1972.84 274.93C1950.77 274.93 1932.6 270.389 1918.34 261.307C1904.18 252.127 1893.69 239.334 1886.85 222.928C1880.01 206.424 1876.6 187.186 1876.6 165.213C1876.6 149.002 1878.79 134.158 1883.19 120.682C1887.58 107.205 1894.03 95.5352 1902.52 85.6719C1911.02 75.8086 1921.52 68.1914 1934.02 62.8203C1946.52 57.4492 1960.87 54.7637 1977.08 54.7637C1987.73 54.7637 1998.37 56.1309 2009.02 58.8652C2019.76 61.502 2030.01 65.1641 2039.78 69.8516L2025.13 106.766C2017.12 102.957 2009.07 99.6367 2000.96 96.8047C1992.86 93.9727 1984.9 92.5566 1977.08 92.5566ZM2077.43 57.8398H2118.29V161.258C2118.29 166.336 2118.2 171.951 2118 178.104C2117.9 184.256 2117.71 190.311 2117.42 196.268C2117.22 202.127 2117.03 207.254 2116.83 211.648C2116.63 216.043 2116.44 218.973 2116.24 220.438H2117.12L2216 57.8398H2270.35V272H2229.92V169.168C2229.92 163.699 2230.01 157.742 2230.21 151.297C2230.4 144.852 2230.65 138.602 2230.94 132.547C2231.33 126.492 2231.67 121.268 2231.97 116.873C2232.26 112.381 2232.46 109.402 2232.55 107.938H2231.38L2132.06 272H2077.43V57.8398Z" fill="#2A006D"></path> <path d="M-434.373 502L-485.936 333.982H-487.254C-487.059 337.986 -486.766 344.041 -486.375 352.146C-485.887 360.154 -485.447 368.699 -485.057 377.781C-484.666 386.863 -484.471 395.066 -484.471 402.391V502H-525.047V287.84H-463.23L-412.547 451.609H-411.668L-357.908 287.84H-296.092V502H-338.426V400.633C-338.426 393.895 -338.328 386.131 -338.133 377.342C-337.84 368.553 -337.498 360.203 -337.107 352.293C-336.717 344.285 -336.424 338.279 -336.229 334.275H-337.547L-392.771 502H-434.373ZM-159.422 502H-204.832V325.633H-262.986V287.84H-101.268V325.633H-159.422V502ZM115.664 287.84L49.3066 439.305C43.3496 452.977 37.002 464.744 30.2637 474.607C23.5254 484.373 14.9805 491.893 4.62891 497.166C-5.72266 502.342 -19.2969 504.93 -36.0938 504.93C-41.3672 504.93 -47.0801 504.539 -53.2324 503.758C-59.3848 503.074 -65.0977 502 -70.3711 500.535V461.57C-65.4883 463.426 -60.2148 464.793 -54.5508 465.672C-48.7891 466.453 -43.3691 466.844 -38.291 466.844C-31.6504 466.844 -26.2793 465.721 -22.1777 463.475C-18.0762 461.229 -14.8047 458.201 -12.3633 454.393C-9.92188 450.584 -7.87109 446.336 -6.21094 441.648L-80.332 287.84H-32.2852L7.70508 380.564C8.58398 382.518 9.70703 385.154 11.0742 388.475C12.5391 391.697 13.9551 395.018 15.3223 398.436C16.7871 401.756 17.9102 404.686 18.6914 407.225H20.3027C21.084 404.783 22.1094 401.854 23.3789 398.436C24.7461 394.92 26.1621 391.355 27.627 387.742C29.0918 384.031 30.4102 380.711 31.582 377.781L68.7891 287.84H115.664ZM233.584 322.557C224.893 322.557 217.178 324.266 210.439 327.684C203.799 331.004 198.184 335.838 193.594 342.186C189.102 348.533 185.684 356.199 183.34 365.184C180.996 374.168 179.824 384.275 179.824 395.506C179.824 410.643 181.68 423.582 185.391 434.324C189.199 444.969 195.059 453.123 202.969 458.787C210.879 464.354 221.084 467.137 233.584 467.137C242.275 467.137 250.967 466.16 259.658 464.207C268.447 462.254 277.969 459.471 288.223 455.857V493.943C278.75 497.85 269.424 500.633 260.244 502.293C251.064 504.051 240.762 504.93 229.336 504.93C207.266 504.93 189.102 500.389 174.844 491.307C160.684 482.127 150.186 469.334 143.35 452.928C136.514 436.424 133.096 417.186 133.096 395.213C133.096 379.002 135.293 364.158 139.688 350.682C144.082 337.205 150.527 325.535 159.023 315.672C167.52 305.809 178.018 298.191 190.518 292.82C203.018 287.449 217.373 284.764 233.584 284.764C244.229 284.764 254.873 286.131 265.518 288.865C276.26 291.502 286.514 295.164 296.279 299.852L281.631 336.766C273.623 332.957 265.566 329.637 257.461 326.805C249.355 323.973 241.396 322.557 233.584 322.557ZM333.926 287.84H374.795V391.258C374.795 396.336 374.697 401.951 374.502 408.104C374.404 414.256 374.209 420.311 373.916 426.268C373.721 432.127 373.525 437.254 373.33 441.648C373.135 446.043 372.939 448.973 372.744 450.438H373.623L472.5 287.84H526.846V502H486.416V399.168C486.416 393.699 486.514 387.742 486.709 381.297C486.904 374.852 487.148 368.602 487.441 362.547C487.832 356.492 488.174 351.268 488.467 346.873C488.76 342.381 488.955 339.402 489.053 337.938H487.881L388.564 502H333.926V287.84Z" fill="#2A006D"></path> <path d="M594.488 288.719H633.746L654.107 436.668L725.885 288.719H768.365L661.139 502H627.887L594.488 288.719ZM568.854 288.719H611.188L590.387 454.393L582.037 502H531.939L568.854 288.719ZM749.762 288.719H792.389L755.475 502H705.084L714.166 450.145L749.762 288.719ZM924.518 288.719L887.604 502H837.359L874.42 288.719H924.518ZM986.773 288.719L979.889 328.416H806.598L813.629 288.719H986.773ZM1062.05 420.115L1133.25 288.719H1188.18L1089.45 458.055C1085.74 464.695 1081.68 470.896 1077.29 476.658C1072.89 482.42 1068.01 487.498 1062.64 491.893C1057.37 496.189 1051.41 499.559 1044.77 502C1038.23 504.344 1030.9 505.564 1022.8 505.662C1019.96 505.662 1017.13 505.613 1014.3 505.516C1011.57 505.516 1008.78 505.467 1005.95 505.369L1008.88 464.939C1010.35 465.232 1011.86 465.477 1013.42 465.672C1014.98 465.77 1016.55 465.818 1018.11 465.818C1023.29 465.916 1027.78 465.281 1031.59 463.914C1035.39 462.449 1038.71 460.252 1041.55 457.322C1044.38 454.393 1046.87 450.633 1049.02 446.043L1062.05 420.115ZM1056.78 288.719L1083.73 383.494L1089.3 440.477H1055.17L1005.8 288.719H1056.78ZM1292.62 429.93L1341.69 429.344C1340.33 445.555 1335.1 459.373 1326.02 470.799C1317.04 482.127 1305.66 490.721 1291.89 496.58C1278.22 502.439 1263.62 505.223 1248.09 504.93C1233.34 504.637 1220.94 501.609 1210.88 495.848C1200.82 489.988 1192.91 482.176 1187.15 472.41C1181.39 462.547 1177.58 451.512 1175.73 439.305C1173.87 427 1173.77 414.305 1175.43 401.219L1177.04 389.646C1179 376.072 1182.61 363.035 1187.88 350.535C1193.16 337.938 1200.04 326.707 1208.54 316.844C1217.13 306.98 1227.34 299.266 1239.15 293.699C1250.97 288.035 1264.35 285.35 1279.29 285.643C1295.21 285.936 1308.73 289.256 1319.87 295.604C1331.1 301.951 1339.79 310.838 1345.94 322.264C1352.19 333.689 1355.71 347.166 1356.49 362.693L1306.54 362.547C1306.83 355.027 1306.1 348.582 1304.34 343.211C1302.58 337.84 1299.46 333.689 1294.96 330.76C1290.57 327.732 1284.37 326.072 1276.36 325.779C1267.67 325.486 1260.39 327.293 1254.54 331.199C1248.77 335.008 1244.09 340.135 1240.47 346.58C1236.86 353.025 1234.08 360.008 1232.12 367.527C1230.27 375.047 1228.85 382.322 1227.88 389.354L1226.41 401.365C1225.73 407.127 1225.09 413.621 1224.51 420.848C1223.92 427.977 1224.16 434.861 1225.24 441.502C1226.31 448.045 1228.8 453.514 1232.71 457.908C1236.62 462.303 1242.72 464.646 1251.02 464.939C1258.83 465.135 1265.62 463.914 1271.38 461.277C1277.14 458.543 1281.78 454.539 1285.3 449.266C1288.91 443.895 1291.35 437.449 1292.62 429.93ZM1415.96 420.408L1511.62 288.719H1563.03L1526.12 502H1475.87L1498.87 370.457L1403.22 502H1351.65L1388.71 288.719H1438.96L1415.96 420.408Z" fill="#2A006D"></path> <path d="M1770.8 290.5H1800.2C1810.8 290.5 1820.8 290.4 1830.2 290.2C1839.8 290 1848.3 289.8 1855.7 289.6L1854.2 295.6C1847.4 295.8 1842.1 296.6 1838.3 298C1834.5 299.2 1831.5 301.6 1829.3 305.2C1827.3 308.6 1825.3 314 1823.3 321.4L1783.7 470.2C1781.9 477.4 1781.1 482.8 1781.3 486.4C1781.7 490 1783.5 492.4 1786.7 493.6C1789.9 494.8 1794.8 495.6 1801.4 496L1800.2 502C1792.8 501.6 1784.4 501.4 1775 501.4C1765.6 501.2 1755.6 501.1 1745 501.1C1734.2 501.1 1723.9 501.2 1714.1 501.4C1704.5 501.4 1696.8 501.6 1691 502L1692.2 496C1699.2 495.6 1704.5 494.8 1708.1 493.6C1711.9 492.4 1714.9 490 1717.1 486.4C1719.3 482.8 1721.3 477.4 1723.1 470.2L1766.6 308.5L1642.1 503.5H1635.5L1608.8 328.3L1574 460.9C1572.6 466.5 1571.9 472 1571.9 477.4C1572.1 482.6 1574.1 486.9 1577.9 490.3C1581.7 493.7 1588.5 495.6 1598.3 496L1597.1 502C1594.7 501.8 1591.3 501.7 1586.9 501.7C1582.7 501.5 1578.3 501.4 1573.7 501.4C1569.1 501.2 1565 501.1 1561.4 501.1C1556.2 501.1 1551 501.2 1545.8 501.4C1540.6 501.4 1536.3 501.6 1532.9 502L1534.1 496C1541.1 495.6 1546.7 493.7 1550.9 490.3C1555.3 486.9 1558.8 482.6 1561.4 477.4C1564 472 1566 466.5 1567.4 460.9L1604.6 321.4C1606.6 314 1607.4 308.6 1607 305.2C1606.6 301.6 1604.8 299.2 1601.6 298C1598.6 296.6 1593.7 295.8 1586.9 295.6L1588.4 289.6C1594 289.8 1601.3 290 1610.3 290.2C1619.5 290.4 1629.1 290.5 1639.1 290.5C1644.1 290.5 1649 290.4 1653.8 290.2C1658.6 290 1662.9 289.8 1666.7 289.6L1684.1 426.4L1770.8 290.5ZM2068.77 236.2C2077.77 236.2 2084.87 238.9 2090.07 244.3C2095.47 249.5 2098.17 255.4 2098.17 262C2098.17 269.4 2095.97 275.9 2091.57 281.5C2087.37 286.9 2081.17 291.3 2072.97 294.7C2066.37 297.3 2058.67 299.3 2049.87 300.7C2041.27 302.1 2031.67 302.8 2021.07 302.8C2014.47 302.8 2006.87 302.5 1998.27 301.9C1989.67 301.3 1980.57 300.6 1970.97 299.8C1961.57 299 1952.27 298.3 1943.07 297.7C1934.07 297.1 1925.97 296.8 1918.77 296.8C1911.57 296.8 1904.97 297.2 1898.97 298C1893.17 298.8 1888.37 300.1 1884.57 301.9C1892.17 302.9 1898.47 306 1903.47 311.2C1908.67 316.2 1911.27 322.8 1911.27 331C1911.27 339.6 1908.47 346.8 1902.87 352.6C1897.27 358.2 1890.37 361 1882.17 361C1873.57 361 1866.87 358.1 1862.07 352.3C1857.47 346.3 1855.17 339.5 1855.17 331.9C1855.17 326.5 1856.67 320.7 1859.67 314.5C1862.67 308.1 1868.47 302.8 1877.07 298.6C1881.87 296.2 1886.77 294.5 1891.77 293.5C1896.97 292.5 1901.77 291.9 1906.17 291.7C1910.77 291.5 1914.47 291.4 1917.27 291.4C1929.87 291.4 1942.47 291.9 1955.07 292.9C1967.67 293.7 1979.87 294.6 1991.67 295.6C2003.47 296.4 2014.27 296.8 2024.07 296.8C2031.07 296.8 2036.87 296.5 2041.47 295.9C2046.27 295.3 2050.57 294.6 2054.37 293.8L2053.47 296.5C2049.87 293.7 2046.57 289.7 2043.57 284.5C2040.57 279.3 2039.07 273.2 2039.07 266.2C2039.07 257 2041.87 249.7 2047.47 244.3C2053.07 238.9 2060.17 236.2 2068.77 236.2ZM1953.57 295.9C1953.57 295.9 1955.57 296.1 1959.57 296.5C1963.57 296.7 1968.47 297 1974.27 297.4C1980.27 297.8 1986.17 298.2 1991.97 298.6C1997.97 299 2002.97 299.4 2006.97 299.8C2010.97 300 2012.97 300.1 2012.97 300.1L1968.87 467.2C1967.07 474.2 1966.47 479.7 1967.07 483.7C1967.67 487.7 1969.87 490.6 1973.67 492.4C1977.67 494.2 1983.57 495.4 1991.37 496L1990.17 502C1983.17 501.6 1973.97 501.4 1962.57 501.4C1951.37 501.2 1939.67 501.1 1927.47 501.1C1915.87 501.1 1904.77 501.2 1894.17 501.4C1883.57 501.4 1875.07 501.6 1868.67 502L1869.87 496C1878.27 495.6 1884.87 494.6 1889.67 493C1894.67 491.2 1898.47 488.3 1901.07 484.3C1903.87 480.1 1906.17 474.4 1907.97 467.2L1953.57 295.9ZM2110.56 500.5C2119.36 500.5 2126.66 498.3 2132.46 493.9C2138.46 489.5 2144.16 483.3 2149.56 475.3C2155.16 467.1 2161.36 457.4 2168.16 446.2C2168.16 446.2 2169.36 446.2 2171.76 446.2C2174.36 446.2 2175.66 446.2 2175.66 446.2C2170.06 454.4 2164.96 462.1 2160.36 469.3C2155.96 476.5 2151.46 482.9 2146.86 488.5C2142.46 494.1 2137.36 498.5 2131.56 501.7C2125.76 504.7 2118.76 506.2 2110.56 506.2C2098.16 506.2 2088.56 503.3 2081.76 497.5C2075.16 491.7 2071.86 484.3 2071.86 475.3C2071.86 465.7 2075.16 458.1 2081.76 452.5C2088.36 446.7 2096.26 443.8 2105.46 443.8C2113.66 443.8 2120.16 445.8 2124.96 449.8C2129.76 453.6 2132.16 459 2132.16 466C2132.16 475 2129.16 482.4 2123.16 488.2C2117.36 493.8 2110.06 497.4 2101.26 499C2102.26 499.4 2103.46 499.8 2104.86 500.2C2106.26 500.4 2108.16 500.5 2110.56 500.5ZM2157.66 473.8L2154.96 470.8L2094.96 319.6C2092.96 314.4 2091.06 310.3 2089.26 307.3C2087.66 304.1 2085.76 301.7 2083.56 300.1C2081.56 298.3 2078.96 296.8 2075.76 295.6L2077.26 289.6C2083.26 289.8 2091.16 290 2100.96 290.2C2110.76 290.4 2120.56 290.5 2130.36 290.5C2140.16 290.5 2148.36 290.4 2154.96 290.2C2161.76 290 2167.96 289.8 2173.56 289.6L2172.06 295.6C2165.26 296 2160.26 296.9 2157.06 298.3C2154.06 299.5 2152.56 301.8 2152.56 305.2C2152.76 308.4 2154.06 313.4 2156.46 320.2L2193.66 414.7L2154.96 466.6L2246.76 328.9C2251.96 321.1 2254.26 314.9 2253.66 310.3C2253.06 305.5 2250.36 302 2245.56 299.8C2240.76 297.6 2234.46 296.2 2226.66 295.6L2228.16 289.6C2230.16 289.8 2233.76 290 2238.96 290.2C2244.36 290.2 2250.06 290.3 2256.06 290.5C2262.26 290.5 2267.16 290.5 2270.76 290.5C2279.56 290.5 2287.06 290.2 2293.26 289.6L2291.76 295.6C2286.96 297 2282.56 298.9 2278.56 301.3C2274.76 303.7 2270.76 307.2 2266.56 311.8C2262.56 316.4 2257.76 322.9 2252.16 331.3L2157.66 473.8ZM2475.83 289.6C2472.83 297.4 2469.73 306.9 2466.53 318.1C2463.33 329.1 2460.03 342.6 2456.63 358.6H2450.03C2451.83 348.6 2452.73 339.6 2452.73 331.6C2452.93 323.6 2451.33 316.7 2447.93 310.9C2444.13 304.3 2439.53 299.8 2434.13 297.4C2428.73 295 2422.33 293.8 2414.93 293.8C2405.33 293.8 2396.03 296.3 2387.03 301.3C2378.23 306.1 2370.13 313 2362.73 322C2355.33 330.8 2348.83 341.1 2343.23 352.9C2337.63 364.7 2333.23 377.6 2330.03 391.6C2327.03 405.6 2325.53 420.1 2325.53 435.1C2325.53 455.9 2329.03 471.1 2336.03 480.7C2343.23 490.1 2352.83 494.8 2364.83 494.8C2371.43 494.8 2378.23 493.3 2385.23 490.3C2392.43 487.3 2398.63 483 2403.83 477.4C2409.23 471.6 2413.83 465.2 2417.63 458.2C2421.63 451 2426.03 441.6 2430.83 430H2437.43C2432.43 448.2 2428.53 462.9 2425.73 474.1C2423.13 485.1 2421.13 494.4 2419.73 502H2413.13C2413.73 497.8 2414.03 494.4 2414.03 491.8C2414.03 487.8 2413.23 485.4 2411.63 484.6C2410.03 483.6 2407.53 484.3 2404.13 486.7C2398.93 490.3 2393.13 493.6 2386.73 496.6C2380.53 499.6 2373.83 501.9 2366.63 503.5C2359.63 505.3 2352.13 506.2 2344.13 506.2C2313.53 506.2 2291.23 499.4 2277.23 485.8C2263.43 472.2 2256.53 453.4 2256.53 429.4C2256.53 415 2258.93 400.9 2263.73 387.1C2268.53 373.1 2275.43 360 2284.43 347.8C2293.43 335.6 2304.23 324.8 2316.83 315.4C2329.43 306 2343.43 298.7 2358.83 293.5C2374.43 288.1 2391.03 285.4 2408.63 285.4C2416.63 285.4 2423.33 286.3 2428.73 288.1C2434.33 289.9 2439.03 292.3 2442.83 295.3C2446.83 298.3 2450.23 301.5 2453.03 304.9C2455.63 308.1 2458.23 308.4 2460.83 305.8C2463.63 303.2 2466.53 297.8 2469.53 289.6H2475.83ZM2648.33 321.4C2650.33 314 2651.13 308.6 2650.73 305.2C2650.53 301.6 2648.83 299.2 2645.63 298C2642.43 296.6 2637.43 295.8 2630.63 295.6L2632.13 289.6C2638.13 289.8 2645.93 290 2655.53 290.2C2665.33 290.4 2675.13 290.5 2684.93 290.5C2696.33 290.5 2707.03 290.4 2717.03 290.2C2727.23 290 2735.43 289.8 2741.63 289.6L2740.13 295.6C2733.33 295.8 2728.03 296.6 2724.23 298C2720.43 299.2 2717.43 301.6 2715.23 305.2C2713.23 308.6 2711.23 314 2709.23 321.4L2669.63 470.2C2667.83 477.4 2667.03 482.8 2667.23 486.4C2667.43 490 2669.13 492.4 2672.33 493.6C2675.53 494.8 2680.53 495.6 2687.33 496L2686.13 502C2680.13 501.6 2672.03 501.4 2661.83 501.4C2651.83 501.2 2641.13 501.1 2629.73 501.1C2619.93 501.1 2610.13 501.2 2600.33 501.4C2590.73 501.4 2582.83 501.6 2576.63 502L2577.83 496C2584.63 495.6 2589.93 494.8 2593.73 493.6C2597.53 492.4 2600.53 490 2602.73 486.4C2604.93 482.8 2606.93 477.4 2608.73 470.2L2648.33 321.4ZM2536.43 470.2C2534.63 477.4 2533.83 482.8 2534.03 486.4C2534.23 490 2535.93 492.4 2539.13 493.6C2542.33 494.8 2547.33 495.6 2554.13 496L2552.93 502C2546.73 501.6 2538.83 501.4 2529.23 501.4C2519.63 501.2 2509.83 501.1 2499.83 501.1C2488.43 501.1 2477.73 501.2 2467.73 501.4C2457.93 501.4 2449.93 501.6 2443.73 502L2445.23 496C2451.83 495.6 2456.93 494.8 2460.53 493.6C2464.33 492.4 2467.33 490 2469.53 486.4C2471.73 482.8 2473.73 477.4 2475.53 470.2L2515.13 321.4C2517.13 314 2517.93 308.6 2517.53 305.2C2517.13 301.6 2515.33 299.2 2512.13 298C2509.13 296.6 2504.23 295.8 2497.43 295.6L2498.93 289.6C2504.73 289.8 2512.63 290 2522.63 290.2C2532.83 290.4 2543.63 290.5 2555.03 290.5C2565.03 290.5 2574.63 290.4 2583.83 290.2C2593.23 290 2601.43 289.8 2608.43 289.6L2606.93 295.6C2600.13 295.8 2594.83 296.6 2591.03 298C2587.23 299.2 2584.23 301.6 2582.03 305.2C2580.03 308.6 2578.03 314 2576.03 321.4L2536.43 470.2ZM2522.33 490.3L2518.73 485.2L2666.03 295.9L2669.63 301.6L2522.33 490.3Z" fill="#2A006D"></path> <path d="M138.8 523.5H168.2C178.8 523.5 188.8 523.4 198.2 523.2C207.8 523 216.3 522.8 223.7 522.6L222.2 528.6C215.4 528.8 210.1 529.6 206.3 531C202.5 532.2 199.5 534.6 197.3 538.2C195.3 541.6 193.3 547 191.3 554.4L151.7 703.2C149.9 710.4 149.1 715.8 149.3 719.4C149.7 723 151.5 725.4 154.7 726.6C157.9 727.8 162.8 728.6 169.4 729L168.2 735C160.8 734.6 152.4 734.4 143 734.4C133.6 734.2 123.6 734.1 113 734.1C102.2 734.1 91.9 734.2 82.1 734.4C72.5 734.4 64.8 734.6 59 735L60.2 729C67.2 728.6 72.5 727.8 76.1 726.6C79.9 725.4 82.9 723 85.1 719.4C87.3 715.8 89.3 710.4 91.1 703.2L134.6 541.5L10.1 736.5H3.50001L-23.2 561.3L-58 693.9C-59.4 699.5 -60.1 705 -60.1 710.4C-59.9 715.6 -57.9 719.9 -54.1 723.3C-50.3 726.7 -43.5 728.6 -33.7 729L-34.9 735C-37.3 734.8 -40.7 734.7 -45.1 734.7C-49.3 734.5 -53.7 734.4 -58.3 734.4C-62.9 734.2 -67 734.1 -70.6 734.1C-75.8 734.1 -81 734.2 -86.2 734.4C-91.4 734.4 -95.7 734.6 -99.1 735L-97.9 729C-90.9 728.6 -85.3 726.7 -81.1 723.3C-76.7 719.9 -73.2 715.6 -70.6 710.4C-68 705 -66 699.5 -64.6 693.9L-27.4 554.4C-25.4 547 -24.6 541.6 -25 538.2C-25.4 534.6 -27.2 532.2 -30.4 531C-33.4 529.6 -38.3 528.8 -45.1 528.6L-43.6 522.6C-38 522.8 -30.7 523 -21.7 523.2C-12.5 523.4 -2.9 523.5 7.1 523.5C12.1 523.5 17 523.4 21.8 523.2C26.6 523 30.9 522.8 34.7 522.6L52.1 659.4L138.8 523.5ZM436.766 469.2C445.766 469.2 452.866 471.9 458.066 477.3C463.466 482.5 466.166 488.4 466.166 495C466.166 502.4 463.966 508.9 459.566 514.5C455.366 519.9 449.166 524.3 440.966 527.7C434.366 530.3 426.666 532.3 417.866 533.7C409.266 535.1 399.666 535.8 389.066 535.8C382.466 535.8 374.866 535.5 366.266 534.9C357.666 534.3 348.566 533.6 338.966 532.8C329.566 532 320.266 531.3 311.066 530.7C302.066 530.1 293.966 529.8 286.766 529.8C279.566 529.8 272.966 530.2 266.966 531C261.166 531.8 256.366 533.1 252.566 534.9C260.166 535.9 266.466 539 271.466 544.2C276.666 549.2 279.266 555.8 279.266 564C279.266 572.6 276.466 579.8 270.866 585.6C265.266 591.2 258.366 594 250.166 594C241.566 594 234.866 591.1 230.066 585.3C225.466 579.3 223.166 572.5 223.166 564.9C223.166 559.5 224.666 553.7 227.666 547.5C230.666 541.1 236.466 535.8 245.066 531.6C249.866 529.2 254.766 527.5 259.766 526.5C264.966 525.5 269.766 524.9 274.166 524.7C278.766 524.5 282.466 524.4 285.266 524.4C297.866 524.4 310.466 524.9 323.066 525.9C335.666 526.7 347.866 527.6 359.666 528.6C371.466 529.4 382.266 529.8 392.066 529.8C399.066 529.8 404.866 529.5 409.466 528.9C414.266 528.3 418.566 527.6 422.366 526.8L421.466 529.5C417.866 526.7 414.566 522.7 411.566 517.5C408.566 512.3 407.066 506.2 407.066 499.2C407.066 490 409.866 482.7 415.466 477.3C421.066 471.9 428.166 469.2 436.766 469.2ZM321.566 528.9C321.566 528.9 323.566 529.1 327.566 529.5C331.566 529.7 336.466 530 342.266 530.4C348.266 530.8 354.166 531.2 359.966 531.6C365.966 532 370.966 532.4 374.966 532.8C378.966 533 380.966 533.1 380.966 533.1L336.866 700.2C335.066 707.2 334.466 712.7 335.066 716.7C335.666 720.7 337.866 723.6 341.666 725.4C345.666 727.2 351.566 728.4 359.366 729L358.166 735C351.166 734.6 341.966 734.4 330.566 734.4C319.366 734.2 307.666 734.1 295.466 734.1C283.866 734.1 272.766 734.2 262.166 734.4C251.566 734.4 243.066 734.6 236.666 735L237.866 729C246.266 728.6 252.866 727.6 257.666 726C262.666 724.2 266.466 721.3 269.066 717.3C271.866 713.1 274.166 707.4 275.966 700.2L321.566 528.9ZM478.559 733.5C487.359 733.5 494.659 731.3 500.459 726.9C506.459 722.5 512.159 716.3 517.559 708.3C523.159 700.1 529.359 690.4 536.159 679.2C536.159 679.2 537.359 679.2 539.759 679.2C542.359 679.2 543.659 679.2 543.659 679.2C538.059 687.4 532.959 695.1 528.359 702.3C523.959 709.5 519.459 715.9 514.859 721.5C510.459 727.1 505.359 731.5 499.559 734.7C493.759 737.7 486.759 739.2 478.559 739.2C466.159 739.2 456.559 736.3 449.759 730.5C443.159 724.7 439.859 717.3 439.859 708.3C439.859 698.7 443.159 691.1 449.759 685.5C456.359 679.7 464.259 676.8 473.459 676.8C481.659 676.8 488.159 678.8 492.959 682.8C497.759 686.6 500.159 692 500.159 699C500.159 708 497.159 715.4 491.159 721.2C485.359 726.8 478.059 730.4 469.259 732C470.259 732.4 471.459 732.8 472.859 733.2C474.259 733.4 476.159 733.5 478.559 733.5ZM525.659 706.8L522.959 703.8L462.959 552.6C460.959 547.4 459.059 543.3 457.259 540.3C455.659 537.1 453.759 534.7 451.559 533.1C449.559 531.3 446.959 529.8 443.759 528.6L445.259 522.6C451.259 522.8 459.159 523 468.959 523.2C478.759 523.4 488.559 523.5 498.359 523.5C508.159 523.5 516.359 523.4 522.959 523.2C529.759 523 535.959 522.8 541.559 522.6L540.059 528.6C533.259 529 528.259 529.9 525.059 531.3C522.059 532.5 520.559 534.8 520.559 538.2C520.759 541.4 522.059 546.4 524.459 553.2L561.659 647.7L522.959 699.6L614.759 561.9C619.959 554.1 622.259 547.9 621.659 543.3C621.059 538.5 618.359 535 613.559 532.8C608.759 530.6 602.459 529.2 594.659 528.6L596.159 522.6C598.159 522.8 601.759 523 606.959 523.2C612.359 523.2 618.059 523.3 624.059 523.5C630.259 523.5 635.159 523.5 638.759 523.5C647.559 523.5 655.059 523.2 661.259 522.6L659.759 528.6C654.959 530 650.559 531.9 646.559 534.3C642.759 536.7 638.759 540.2 634.559 544.8C630.559 549.4 625.759 555.9 620.159 564.3L525.659 706.8ZM843.826 522.6C840.826 530.4 837.726 539.9 834.526 551.1C831.326 562.1 828.026 575.6 824.626 591.6H818.026C819.826 581.6 820.726 572.6 820.726 564.6C820.926 556.6 819.326 549.7 815.926 543.9C812.126 537.3 807.526 532.8 802.126 530.4C796.726 528 790.326 526.8 782.926 526.8C773.326 526.8 764.026 529.3 755.026 534.3C746.226 539.1 738.126 546 730.726 555C723.326 563.8 716.826 574.1 711.226 585.9C705.626 597.7 701.226 610.6 698.026 624.6C695.026 638.6 693.526 653.1 693.526 668.1C693.526 688.9 697.026 704.1 704.026 713.7C711.226 723.1 720.826 727.8 732.826 727.8C739.426 727.8 746.226 726.3 753.226 723.3C760.426 720.3 766.626 716 771.826 710.4C777.226 704.6 781.826 698.2 785.626 691.2C789.626 684 794.026 674.6 798.826 663H805.426C800.426 681.2 796.526 695.9 793.726 707.1C791.126 718.1 789.126 727.4 787.726 735H781.126C781.726 730.8 782.026 727.4 782.026 724.8C782.026 720.8 781.226 718.4 779.626 717.6C778.026 716.6 775.526 717.3 772.126 719.7C766.926 723.3 761.126 726.6 754.726 729.6C748.526 732.6 741.826 734.9 734.626 736.5C727.626 738.3 720.126 739.2 712.126 739.2C681.526 739.2 659.226 732.4 645.226 718.8C631.426 705.2 624.526 686.4 624.526 662.4C624.526 648 626.926 633.9 631.726 620.1C636.526 606.1 643.426 593 652.426 580.8C661.426 568.6 672.226 557.8 684.826 548.4C697.426 539 711.426 531.7 726.826 526.5C742.426 521.1 759.026 518.4 776.626 518.4C784.626 518.4 791.326 519.3 796.726 521.1C802.326 522.9 807.026 525.3 810.826 528.3C814.826 531.3 818.226 534.5 821.026 537.9C823.626 541.1 826.226 541.4 828.826 538.8C831.626 536.2 834.526 530.8 837.526 522.6H843.826ZM1016.33 554.4C1018.33 547 1019.13 541.6 1018.73 538.2C1018.53 534.6 1016.83 532.2 1013.63 531C1010.43 529.6 1005.43 528.8 998.628 528.6L1000.13 522.6C1006.13 522.8 1013.93 523 1023.53 523.2C1033.33 523.4 1043.13 523.5 1052.93 523.5C1064.33 523.5 1075.03 523.4 1085.03 523.2C1095.23 523 1103.43 522.8 1109.63 522.6L1108.13 528.6C1101.33 528.8 1096.03 529.6 1092.23 531C1088.43 532.2 1085.43 534.6 1083.23 538.2C1081.23 541.6 1079.23 547 1077.23 554.4L1037.63 703.2C1035.83 710.4 1035.03 715.8 1035.23 719.4C1035.43 723 1037.13 725.4 1040.33 726.6C1043.53 727.8 1048.53 728.6 1055.33 729L1054.13 735C1048.13 734.6 1040.03 734.4 1029.83 734.4C1019.83 734.2 1009.13 734.1 997.728 734.1C987.928 734.1 978.128 734.2 968.328 734.4C958.728 734.4 950.828 734.6 944.628 735L945.828 729C952.628 728.6 957.928 727.8 961.728 726.6C965.528 725.4 968.528 723 970.728 719.4C972.928 715.8 974.928 710.4 976.728 703.2L1016.33 554.4ZM904.428 703.2C902.628 710.4 901.828 715.8 902.028 719.4C902.228 723 903.928 725.4 907.128 726.6C910.328 727.8 915.328 728.6 922.128 729L920.928 735C914.728 734.6 906.828 734.4 897.228 734.4C887.628 734.2 877.828 734.1 867.828 734.1C856.428 734.1 845.728 734.2 835.728 734.4C825.928 734.4 817.928 734.6 811.728 735L813.228 729C819.828 728.6 824.928 727.8 828.528 726.6C832.328 725.4 835.328 723 837.528 719.4C839.728 715.8 841.728 710.4 843.528 703.2L883.128 554.4C885.128 547 885.928 541.6 885.528 538.2C885.128 534.6 883.328 532.2 880.128 531C877.128 529.6 872.228 528.8 865.428 528.6L866.928 522.6C872.728 522.8 880.628 523 890.628 523.2C900.828 523.4 911.628 523.5 923.028 523.5C933.028 523.5 942.628 523.4 951.828 523.2C961.228 523 969.428 522.8 976.428 522.6L974.928 528.6C968.128 528.8 962.828 529.6 959.028 531C955.228 532.2 952.228 534.6 950.028 538.2C948.028 541.6 946.028 547 944.028 554.4L904.428 703.2ZM890.328 723.3L886.728 718.2L1034.03 528.9L1037.63 534.6L890.328 723.3Z" fill="#2A006D"></path> <path d="M1114.31 733.924C1111.74 733.924 1109.81 733.496 1108.53 732.64C1107.46 731.784 1106.92 730.606 1106.92 729.108C1106.92 727.181 1107.89 726.004 1109.81 725.576C1111.74 724.933 1113.67 724.184 1115.59 723.328C1120.52 721.401 1124.8 718.297 1128.44 714.016C1132.29 709.734 1134.64 704.383 1135.5 697.961C1136.57 690.04 1137.75 679.23 1139.03 665.529C1140.32 651.615 1141.71 636.202 1143.21 619.29C1144.71 602.165 1146.2 584.825 1147.7 567.272C1147.92 566.201 1148.02 564.703 1148.02 562.776C1148.02 560.85 1148.02 558.709 1148.02 556.354C1148.02 552.073 1147.27 548.755 1145.78 546.4C1144.49 544.045 1142.46 542.119 1139.67 540.62C1137.32 539.336 1134.75 538.158 1131.97 537.088C1129.19 535.804 1126.19 534.733 1122.98 533.877C1120.41 533.235 1118.27 532.379 1116.56 531.308C1115.06 530.238 1114.31 528.739 1114.31 526.813C1114.31 524.886 1115.06 523.602 1116.56 522.96C1118.27 522.103 1120.3 521.675 1122.66 521.675C1126.08 521.675 1130.15 521.782 1134.86 521.996C1139.78 522.21 1145.13 522.424 1150.91 522.638C1156.69 522.638 1162.58 522.746 1168.57 522.96C1174.78 523.174 1180.78 523.281 1186.56 523.281C1188.27 523.281 1189.87 523.923 1191.37 525.207C1192.87 526.492 1193.83 527.776 1194.26 529.061C1195.97 533.342 1197.47 537.302 1198.76 540.941C1200.04 544.366 1201.54 548.22 1203.25 552.501L1249.49 661.355C1249.92 662.211 1250.35 662.639 1250.78 662.639C1251.42 662.639 1251.85 662.211 1252.06 661.355L1294.13 560.208C1295.84 551.859 1297.12 545.33 1297.98 540.62C1299.05 535.697 1300.01 531.95 1300.87 529.382C1301.72 526.599 1303.54 525.207 1306.33 525.207H1320.78C1330.2 524.779 1340.04 524.137 1350.32 523.281C1360.81 522.21 1369.05 521.675 1375.04 521.675C1377.4 521.675 1379.32 522.103 1380.82 522.96C1382.54 523.602 1383.39 524.886 1383.39 526.813C1383.39 528.739 1382.64 530.131 1381.14 530.987C1379.65 531.843 1377.93 532.593 1376.01 533.235C1375.15 533.449 1373.97 533.877 1372.47 534.519C1371.19 535.162 1370.12 535.697 1369.26 536.125C1362.84 539.122 1358.13 542.44 1355.13 546.079C1352.35 549.718 1351.17 555.605 1351.6 563.74C1352.24 579.367 1352.89 592.746 1353.53 603.878C1354.17 615.009 1354.71 625.284 1355.13 634.703C1355.78 644.122 1356.42 654.077 1357.06 664.566C1357.92 674.841 1358.77 687.15 1359.63 701.493C1360.06 706.845 1362.41 711.233 1366.69 714.658C1370.98 717.869 1376.33 720.331 1382.75 722.043C1384.68 722.686 1386.28 723.435 1387.57 724.291C1389.06 725.147 1389.81 726.646 1389.81 728.787C1389.81 730.285 1389.17 731.462 1387.89 732.319C1386.82 733.175 1385.43 733.603 1383.71 733.603C1379.22 733.603 1373.65 733.496 1367.02 733.282C1360.59 733.068 1354.17 732.854 1347.75 732.64C1341.33 732.426 1335.98 732.319 1331.69 732.319C1327.41 732.319 1322.38 732.426 1316.6 732.64C1311.04 732.854 1305.26 733.068 1299.26 733.282C1293.48 733.71 1288.24 733.924 1283.53 733.924C1281.82 733.924 1280.21 733.496 1278.71 732.64C1277.43 731.784 1276.79 730.606 1276.79 729.108C1276.79 727.181 1277.43 725.683 1278.71 724.612C1280.21 723.328 1281.92 722.472 1283.85 722.043C1291.98 720.331 1297.66 718.19 1300.87 715.621C1304.08 712.838 1305.47 708.236 1305.04 701.814C1304.4 688.97 1303.87 675.912 1303.44 662.639C1303.01 649.367 1302.58 636.309 1302.15 623.465C1301.94 610.407 1301.51 598.098 1300.87 586.538C1300.87 585.254 1300.55 584.718 1299.9 584.932C1299.26 584.932 1298.62 585.682 1297.98 587.18L1239.54 731.998C1238.25 735.423 1236.43 736.814 1234.08 736.172C1231.94 735.53 1230.44 734.352 1229.58 732.64C1218.45 707.808 1207 683.297 1195.23 659.107C1183.45 634.917 1172.96 611.477 1163.76 588.786C1162.9 586.645 1161.72 585.896 1160.23 586.538C1158.94 587.18 1158.19 588.893 1157.98 591.676C1157.55 601.309 1157.23 612.547 1157.01 625.391C1157.01 638.236 1157.12 651.187 1157.34 664.245C1157.55 677.303 1157.66 689.077 1157.66 699.566C1157.66 705.56 1159.58 710.27 1163.44 713.695C1167.29 717.12 1173.5 719.903 1182.06 722.043C1183.99 722.472 1185.91 723.221 1187.84 724.291C1189.77 725.147 1190.73 726.646 1190.73 728.787C1190.73 730.285 1189.87 731.462 1188.16 732.319C1186.45 733.175 1184.74 733.603 1183.02 733.603C1177.24 733.603 1172.75 733.496 1169.54 733.282C1166.33 733.068 1163.33 732.961 1160.55 732.961C1157.98 732.747 1154.45 732.64 1149.95 732.64C1145.03 732.64 1139.78 732.747 1134.22 732.961C1128.65 733.175 1123.94 733.389 1120.09 733.603C1116.23 733.817 1114.31 733.924 1114.31 733.924ZM1461.71 733.924C1460.42 733.924 1458.93 733.496 1457.21 732.64C1455.71 731.784 1454.97 730.606 1454.97 729.108C1454.97 727.181 1455.61 725.683 1456.89 724.612C1458.39 723.328 1460.1 722.472 1462.03 722.043C1470.16 720.331 1475.94 718.19 1479.37 715.621C1483.01 713.053 1484.83 708.45 1484.83 701.814V567.593C1484.83 559.458 1484.61 553.571 1484.19 549.932C1483.76 546.079 1483.22 543.617 1482.58 542.547C1481.94 541.262 1481.08 540.406 1480.01 539.978C1478.51 538.908 1476.16 538.265 1472.95 538.051C1469.95 537.837 1467.92 537.73 1466.85 537.73H1461.39C1454.32 537.73 1447.58 539.55 1441.16 543.189C1434.74 546.828 1429.6 551.217 1425.74 556.354C1424.67 557.853 1423.07 559.993 1420.93 562.776C1418.79 565.559 1416.54 568.021 1414.18 570.162C1411.83 572.302 1409.48 573.373 1407.12 573.373C1405.19 573.373 1403.8 572.838 1402.95 571.767C1402.3 570.483 1401.98 569.091 1401.98 567.593C1401.98 564.81 1402.73 561.92 1404.23 558.923C1408.51 550.574 1411.62 543.403 1413.54 537.409C1415.68 531.415 1417.07 524.458 1417.72 516.538C1418.15 513.541 1419.11 511.4 1420.61 510.115C1422.11 508.831 1423.93 508.189 1426.07 508.189C1427.78 508.189 1429.49 509.58 1431.2 512.363C1432.92 515.146 1434.84 517.394 1436.98 519.106C1439.34 520.819 1443.08 522.103 1448.22 522.96C1453.36 523.816 1457.32 524.244 1460.1 524.244L1582.76 523.923C1587.69 523.923 1591.86 523.388 1595.29 522.317C1598.93 521.247 1601.5 520.284 1602.99 519.427C1606.63 517.287 1609.52 514.932 1611.66 512.363C1613.8 509.794 1616.27 508.51 1619.05 508.51C1620.55 508.51 1621.51 508.938 1621.94 509.794C1622.58 510.651 1622.9 511.935 1622.9 513.648C1622.9 514.504 1622.79 515.467 1622.58 516.538C1622.58 517.608 1622.47 518.678 1622.26 519.749C1621.19 524.03 1620.01 528.311 1618.73 532.593C1617.66 536.66 1616.69 540.62 1615.84 544.473C1615.2 548.327 1614.87 552.18 1614.87 556.033V562.776C1614.87 566.63 1614.45 569.627 1613.59 571.767C1612.95 573.694 1611.56 574.657 1609.42 574.657C1607.27 574.657 1605.46 573.694 1603.96 571.767C1602.67 569.841 1601.28 566.63 1599.78 562.134C1597 553.571 1593.25 547.363 1588.54 543.51C1583.83 539.657 1576.88 537.73 1567.67 537.73H1554.51C1551.08 537.73 1548.19 538.587 1545.84 540.299C1543.7 542.012 1542.09 545.33 1541.02 550.253C1539.95 554.963 1539.42 562.027 1539.42 571.446V701.493C1539.42 707.487 1541.02 711.875 1544.23 714.658C1547.66 717.227 1553.54 719.689 1561.89 722.043C1563.82 722.686 1565.42 723.435 1566.71 724.291C1568.21 725.147 1568.96 726.646 1568.96 728.787C1568.96 730.285 1568.31 731.462 1567.03 732.319C1565.96 733.175 1564.57 733.603 1562.86 733.603C1558.36 733.603 1552.9 733.496 1546.48 733.282C1540.06 733.068 1533.64 732.854 1527.21 732.64C1521.01 732.426 1515.76 732.319 1511.48 732.319C1507.2 732.319 1502.06 732.426 1496.07 732.64C1490.07 732.854 1483.97 733.068 1477.76 733.282C1471.77 733.71 1466.42 733.924 1461.71 733.924ZM1705.8 745.805C1698.52 745.805 1691.78 744.2 1685.57 740.989C1679.58 737.777 1674.76 733.496 1671.12 728.144C1667.48 722.579 1665.66 716.478 1665.66 709.842C1665.66 708.343 1666.63 706.095 1668.55 703.098C1670.69 699.887 1672.41 698.282 1673.69 698.282C1674.55 698.282 1676.47 698.817 1679.47 699.887C1682.47 700.744 1685.89 701.707 1689.75 702.777C1693.6 703.848 1697.67 704.918 1701.95 705.988C1706.23 706.845 1710.08 707.273 1713.51 707.273C1717.79 707.273 1721.64 706.523 1725.07 705.025C1728.49 703.312 1731.17 701.065 1733.1 698.282C1733.74 697.211 1734.27 696.248 1734.7 695.392C1735.13 694.322 1735.34 693.037 1735.34 691.539C1735.34 689.826 1734.92 688.114 1734.06 686.401C1733.2 684.688 1732.24 682.762 1731.17 680.621L1665.66 555.07C1663.31 550.146 1660.21 545.972 1656.35 542.547C1652.71 538.908 1647.68 536.232 1641.26 534.519C1639.33 533.877 1637.62 533.128 1636.12 532.272C1634.84 531.415 1634.2 529.917 1634.2 527.776C1634.2 526.064 1634.84 524.886 1636.12 524.244C1637.41 523.388 1638.8 522.96 1640.3 522.96C1644.79 522.96 1650.04 523.067 1656.03 523.281C1662.02 523.495 1668.02 523.709 1674.01 523.923C1680.01 524.137 1685.04 524.244 1689.1 524.244C1693.39 524.244 1698.84 524.137 1705.48 523.923C1712.12 523.495 1718.75 523.174 1725.39 522.96C1732.24 522.746 1738.02 522.638 1742.73 522.638C1744.44 522.638 1746.26 523.067 1748.19 523.923C1750.33 524.779 1751.4 525.957 1751.4 527.455C1751.4 529.382 1750.33 530.987 1748.19 532.272C1746.26 533.342 1744.33 534.091 1742.41 534.519C1735.99 536.018 1731.38 537.623 1728.6 539.336C1725.82 541.048 1724.43 543.724 1724.43 547.363C1724.43 548.22 1724.43 549.397 1724.43 550.896C1724.64 552.394 1725.07 553.678 1725.71 554.749L1766.49 630.529C1766.7 631.385 1766.92 632.028 1767.13 632.456C1767.56 632.67 1767.99 632.777 1768.42 632.777C1769.27 632.777 1770.02 631.921 1770.66 630.208L1794.11 568.235C1796.25 562.669 1797.64 558.816 1798.28 556.675C1798.92 554.321 1799.24 551.645 1799.24 548.648C1799.24 545.009 1797.32 542.119 1793.46 539.978C1789.82 537.623 1785.01 536.018 1779.01 535.161C1776.87 534.733 1774.73 533.984 1772.59 532.914C1770.45 531.629 1769.38 530.024 1769.38 528.097C1769.38 526.599 1770.34 525.528 1772.27 524.886C1774.41 524.03 1776.55 523.602 1778.69 523.602C1785.76 523.602 1791.86 523.816 1796.99 524.244C1802.13 524.458 1806.2 524.565 1809.2 524.565C1815.4 524.565 1821.08 524.244 1826.22 523.602C1831.57 522.96 1837.56 522.638 1844.2 522.638C1846.55 522.638 1848.69 523.067 1850.62 523.923C1852.76 524.565 1853.83 525.957 1853.83 528.097C1853.83 530.238 1852.87 531.736 1850.94 532.593C1849.23 533.235 1847.41 533.877 1845.48 534.519C1839.06 536.232 1833.81 539.015 1829.75 542.868C1825.68 546.507 1822.58 550.789 1820.44 555.712L1783.83 639.199C1772.06 665.957 1761.67 687.15 1752.68 702.777C1743.91 718.404 1735.77 729.429 1728.28 735.851C1720.79 742.487 1713.29 745.805 1705.8 745.805ZM1967.75 737.456C1950.83 737.456 1934.99 734.995 1920.22 730.071C1905.45 724.933 1892.5 717.762 1881.37 708.557C1870.24 699.138 1861.57 688.007 1855.36 675.162C1849.15 662.104 1846.05 647.655 1846.05 631.813C1846.05 617.257 1848.94 603.342 1854.72 590.07C1860.5 576.584 1868.95 564.596 1880.09 554.107C1891.43 543.617 1905.24 535.269 1921.51 529.061C1937.78 522.853 1956.29 519.749 1977.06 519.749C1983.69 519.749 1990.54 520.284 1997.61 521.354C2004.89 522.424 2011.84 523.816 2018.48 525.528C2025.33 527.241 2031.22 529.168 2036.14 531.308C2037.85 532.165 2039.35 533.235 2040.64 534.519C2042.14 535.804 2042.99 537.623 2043.21 539.978C2044.28 547.685 2044.92 554.963 2045.13 561.813C2045.56 568.449 2045.77 574.122 2045.77 578.832C2045.77 581.4 2044.81 583.113 2042.88 583.969C2041.17 584.825 2039.25 584.825 2037.1 583.969C2035.18 583.113 2033.79 581.4 2032.93 578.832C2031.43 574.55 2029.72 570.055 2027.79 565.345C2026.08 560.636 2023.4 556.568 2019.77 553.143C2015.48 548.648 2009.6 544.902 2002.1 541.905C1994.61 538.908 1985.3 537.409 1974.17 537.409C1963.47 537.409 1953.83 539.764 1945.27 544.473C1936.71 548.969 1929.43 555.284 1923.43 563.419C1917.44 571.339 1912.84 580.437 1909.63 590.712C1906.42 600.774 1904.81 611.37 1904.81 622.502C1904.81 636.844 1906.2 650.009 1908.98 661.997C1911.77 673.771 1916.05 683.939 1921.83 692.502C1927.61 701.065 1934.78 707.701 1943.34 712.41C1952.12 716.906 1962.39 719.154 1974.17 719.154C1990.22 719.154 2003.07 715.835 2012.7 709.199C2022.55 702.563 2030.79 692.074 2037.43 677.731C2039.14 673.878 2041.6 672.058 2044.81 672.272C2048.02 672.487 2049.63 674.306 2049.63 677.731C2049.63 680.728 2049.31 684.26 2048.66 688.328C2048.24 692.181 2047.49 696.462 2046.42 701.172C2045.56 705.667 2044.38 710.484 2042.88 715.621C2042.24 717.976 2041.17 719.903 2039.67 721.401C2038.18 722.9 2036.46 724.184 2034.54 725.254C2026.4 728.894 2016.77 731.784 2005.64 733.924C1994.5 736.279 1981.87 737.456 1967.75 737.456ZM2076.27 733.924C2074.99 733.924 2073.71 733.496 2072.42 732.64C2071.14 731.784 2070.49 730.606 2070.49 729.108C2070.49 725.469 2072.53 723.114 2076.6 722.043C2084.73 720.331 2090.3 718.19 2093.29 715.621C2096.29 713.053 2097.79 708.45 2097.79 701.814V556.033C2097.79 549.183 2096.4 544.366 2093.61 541.584C2090.83 538.801 2085.16 536.446 2076.6 534.519C2072.53 533.449 2070.49 531.094 2070.49 527.455C2070.49 525.957 2071.14 524.779 2072.42 523.923C2073.71 523.067 2074.99 522.638 2076.27 522.638C2080.98 522.638 2086.23 522.746 2092.01 522.96C2098 523.174 2103.78 523.495 2109.35 523.923C2115.13 524.137 2120.16 524.244 2124.44 524.244C2128.72 524.244 2133.86 524.137 2139.85 523.923C2145.85 523.709 2151.95 523.495 2158.16 523.281C2164.36 523.067 2169.72 522.96 2174.21 522.96C2175.92 522.96 2177.21 523.388 2178.06 524.244C2178.92 524.886 2179.35 526.064 2179.35 527.776C2179.35 529.917 2178.81 531.415 2177.74 532.272C2176.67 533.128 2175.17 533.877 2173.25 534.519C2164.47 537.088 2158.8 539.764 2156.23 542.547C2153.66 545.33 2152.38 549.932 2152.38 556.354V662.318C2152.38 665.529 2152.7 667.242 2153.34 667.456C2153.98 667.67 2155.37 666.6 2157.51 664.245L2243.25 566.951C2245.39 564.81 2246.46 562.348 2246.46 559.565V556.033C2246.46 549.183 2245.07 544.366 2242.28 541.584C2239.5 538.801 2233.83 536.446 2225.27 534.519C2221.2 533.449 2219.17 531.094 2219.17 527.455C2219.17 525.957 2219.81 524.779 2221.09 523.923C2222.38 523.067 2223.66 522.638 2224.94 522.638C2229.65 522.638 2234.9 522.746 2240.68 522.96C2246.67 523.174 2252.45 523.495 2258.02 523.923C2263.8 524.137 2268.83 524.244 2273.11 524.244C2277.39 524.244 2282.53 524.137 2288.52 523.923C2294.52 523.709 2300.62 523.495 2306.83 523.281C2313.03 523.067 2318.39 522.96 2322.88 522.96C2324.59 522.96 2325.88 523.388 2326.73 524.244C2327.59 524.886 2328.02 526.064 2328.02 527.776C2328.02 529.917 2327.48 531.415 2326.41 532.272C2325.34 533.128 2323.84 533.877 2321.92 534.519C2313.14 537.088 2307.47 539.764 2304.9 542.547C2302.33 545.33 2301.05 549.932 2301.05 556.354V701.493C2301.05 707.487 2302.44 711.875 2305.22 714.658C2308 717.227 2313.57 719.689 2321.92 722.043C2323.84 722.686 2325.34 723.435 2326.41 724.291C2327.48 725.147 2328.02 726.646 2328.02 728.787C2328.02 730.285 2327.59 731.462 2326.73 732.319C2325.88 733.175 2324.59 733.603 2322.88 733.603C2318.39 733.603 2313.03 733.496 2306.83 733.282C2300.62 733.068 2294.52 732.854 2288.52 732.64C2282.53 732.426 2277.39 732.319 2273.11 732.319C2268.83 732.319 2263.8 732.426 2258.02 732.64C2252.45 732.854 2246.67 733.068 2240.68 733.282C2234.9 733.71 2229.65 733.924 2224.94 733.924C2223.66 733.924 2222.38 733.496 2221.09 732.64C2219.81 731.784 2219.17 730.606 2219.17 729.108C2219.17 725.469 2221.2 723.114 2225.27 722.043C2233.4 720.331 2238.97 718.19 2241.96 715.621C2244.96 713.053 2246.46 708.45 2246.46 701.814V594.887C2246.46 592.104 2245.6 591.569 2243.89 593.281L2156.87 692.181C2155.37 693.679 2154.2 695.071 2153.34 696.355C2152.7 697.64 2152.38 699.352 2152.38 701.493C2152.38 707.487 2153.77 711.875 2156.55 714.658C2159.33 717.227 2164.9 719.689 2173.25 722.043C2175.17 722.686 2176.67 723.435 2177.74 724.291C2178.81 725.147 2179.35 726.646 2179.35 728.787C2179.35 730.285 2178.92 731.462 2178.06 732.319C2177.21 733.175 2175.92 733.603 2174.21 733.603C2169.72 733.603 2164.36 733.496 2158.16 733.282C2151.95 733.068 2145.85 732.854 2139.85 732.64C2133.86 732.426 2128.72 732.319 2124.44 732.319C2120.16 732.319 2115.13 732.426 2109.35 732.64C2103.78 732.854 2098 733.068 2092.01 733.282C2086.23 733.71 2080.98 733.924 2076.27 733.924Z" fill="#2A006D"></path> <path d="M-602.693 973.963C-605.261 973.963 -607.188 973.535 -608.472 972.679C-609.543 971.823 -610.078 970.645 -610.078 969.147C-610.078 967.22 -609.115 966.043 -607.188 965.615C-605.261 964.972 -603.335 964.223 -601.408 963.367C-596.485 961.44 -592.203 958.336 -588.564 954.055C-584.711 949.774 -582.356 944.422 -581.5 938C-580.429 930.079 -579.252 919.269 -577.968 905.568C-576.683 891.654 -575.292 876.241 -573.793 859.33C-572.295 842.204 -570.796 824.864 -569.298 807.311C-569.084 806.241 -568.977 804.742 -568.977 802.815C-568.977 800.889 -568.977 798.748 -568.977 796.393C-568.977 792.112 -569.726 788.794 -571.224 786.439C-572.509 784.084 -574.543 782.158 -577.325 780.659C-579.68 779.375 -582.249 778.198 -585.032 777.127C-587.815 775.843 -590.812 774.772 -594.023 773.916C-596.592 773.274 -598.732 772.418 -600.445 771.347C-601.943 770.277 -602.693 768.779 -602.693 766.852C-602.693 764.925 -601.943 763.641 -600.445 762.999C-598.732 762.142 -596.699 761.714 -594.344 761.714C-590.919 761.714 -586.851 761.821 -582.142 762.035C-577.218 762.249 -571.867 762.463 -566.087 762.678C-560.307 762.678 -554.42 762.785 -548.426 762.999C-542.218 763.213 -536.224 763.32 -530.444 763.32C-528.732 763.32 -527.126 763.962 -525.628 765.246C-524.129 766.531 -523.166 767.815 -522.738 769.1C-521.025 773.381 -519.527 777.341 -518.242 780.98C-516.958 784.406 -515.46 788.259 -513.747 792.54L-467.508 901.394C-467.08 902.25 -466.652 902.678 -466.224 902.678C-465.582 902.678 -465.153 902.25 -464.939 901.394L-422.875 800.247C-421.162 791.898 -419.878 785.369 -419.022 780.659C-417.951 775.736 -416.988 771.99 -416.132 769.421C-415.275 766.638 -413.456 765.246 -410.673 765.246H-396.223C-386.804 764.818 -376.957 764.176 -366.682 763.32C-356.193 762.249 -347.951 761.714 -341.957 761.714C-339.602 761.714 -337.676 762.142 -336.177 762.999C-334.465 763.641 -333.608 764.925 -333.608 766.852C-333.608 768.779 -334.358 770.17 -335.856 771.026C-337.354 771.883 -339.067 772.632 -340.994 773.274C-341.85 773.488 -343.027 773.916 -344.526 774.558C-345.81 775.201 -346.881 775.736 -347.737 776.164C-354.159 779.161 -358.868 782.479 -361.865 786.118C-364.648 789.757 -365.826 795.644 -365.397 803.779C-364.755 819.406 -364.113 832.785 -363.471 843.917C-362.829 855.048 -362.293 865.323 -361.865 874.742C-361.223 884.162 -360.581 894.116 -359.939 904.605C-359.082 914.88 -358.226 927.189 -357.37 941.532C-356.942 946.884 -354.587 951.272 -350.306 954.697C-346.024 957.908 -340.673 960.37 -334.25 962.082C-332.324 962.725 -330.718 963.474 -329.434 964.33C-327.935 965.186 -327.186 966.685 -327.186 968.826C-327.186 970.324 -327.828 971.502 -329.113 972.358C-330.183 973.214 -331.575 973.642 -333.287 973.642C-337.783 973.642 -343.348 973.535 -349.985 973.321C-356.407 973.107 -362.829 972.893 -369.251 972.679C-375.673 972.465 -381.024 972.358 -385.306 972.358C-389.587 972.358 -394.618 972.465 -400.398 972.679C-405.963 972.893 -411.743 973.107 -417.737 973.321C-423.517 973.749 -428.762 973.963 -433.471 973.963C-435.184 973.963 -436.789 973.535 -438.288 972.679C-439.572 971.823 -440.214 970.645 -440.214 969.147C-440.214 967.22 -439.572 965.722 -438.288 964.651C-436.789 963.367 -435.077 962.511 -433.15 962.082C-425.016 960.37 -419.343 958.229 -416.132 955.66C-412.921 952.878 -411.529 948.275 -411.957 941.853C-412.6 929.009 -413.135 915.951 -413.563 902.678C-413.991 889.406 -414.419 876.348 -414.847 863.504C-415.061 850.446 -415.49 838.137 -416.132 826.577C-416.132 825.293 -416.453 824.757 -417.095 824.972C-417.737 824.972 -418.379 825.721 -419.022 827.219L-477.462 972.037C-478.747 975.462 -480.566 976.853 -482.921 976.211C-485.062 975.569 -486.56 974.391 -487.417 972.679C-498.548 947.847 -510.001 923.336 -521.775 899.146C-533.548 874.957 -544.038 851.516 -553.243 828.825C-554.099 826.684 -555.276 825.935 -556.775 826.577C-558.059 827.219 -558.808 828.932 -559.023 831.715C-559.451 841.348 -559.772 852.586 -559.986 865.431C-559.986 878.275 -559.879 891.226 -559.665 904.284C-559.451 917.342 -559.344 929.116 -559.344 939.605C-559.344 945.599 -557.417 950.309 -553.564 953.734C-549.711 957.159 -543.503 959.942 -534.94 962.082C-533.013 962.511 -531.087 963.26 -529.16 964.33C-527.233 965.186 -526.27 966.685 -526.27 968.826C-526.27 970.324 -527.126 971.502 -528.839 972.358C-530.551 973.214 -532.264 973.642 -533.977 973.642C-539.756 973.642 -544.252 973.535 -547.463 973.321C-550.674 973.107 -553.671 973 -556.454 973C-559.023 972.786 -562.555 972.679 -567.05 972.679C-571.974 972.679 -577.218 972.786 -582.784 973C-588.35 973.214 -593.059 973.428 -596.913 973.642C-600.766 973.856 -602.693 973.963 -602.693 973.963ZM-255.292 973.963C-256.576 973.963 -258.075 973.535 -259.787 972.679C-261.286 971.823 -262.035 970.645 -262.035 969.147C-262.035 967.22 -261.393 965.722 -260.108 964.651C-258.61 963.367 -256.897 962.511 -254.971 962.082C-246.836 960.37 -241.056 958.229 -237.631 955.66C-233.992 953.092 -232.172 948.489 -232.172 941.853V807.632C-232.172 799.497 -232.386 793.61 -232.815 789.971C-233.243 786.118 -233.778 783.656 -234.42 782.586C-235.062 781.302 -235.919 780.445 -236.989 780.017C-238.487 778.947 -240.842 778.305 -244.053 778.09C-247.05 777.876 -249.084 777.769 -250.154 777.769H-255.613C-262.677 777.769 -269.42 779.589 -275.842 783.228C-282.264 786.867 -287.402 791.256 -291.255 796.393C-292.326 797.892 -293.931 800.033 -296.072 802.815C-298.213 805.598 -300.46 808.06 -302.815 810.201C-305.17 812.341 -307.525 813.412 -309.879 813.412C-311.806 813.412 -313.197 812.877 -314.054 811.806C-314.696 810.522 -315.017 809.13 -315.017 807.632C-315.017 804.849 -314.268 801.959 -312.769 798.962C-308.488 790.614 -305.384 783.442 -303.457 777.448C-301.317 771.454 -299.925 764.497 -299.283 756.577C-298.855 753.58 -297.891 751.439 -296.393 750.155C-294.894 748.87 -293.075 748.228 -290.934 748.228C-289.222 748.228 -287.509 749.619 -285.797 752.402C-284.084 755.185 -282.157 757.433 -280.017 759.145C-277.662 760.858 -273.916 762.142 -268.778 762.999C-263.64 763.855 -259.68 764.283 -256.897 764.283L-134.236 763.962C-129.312 763.962 -125.138 763.427 -121.713 762.356C-118.074 761.286 -115.505 760.323 -114.006 759.467C-110.367 757.326 -107.477 754.971 -105.337 752.402C-103.196 749.833 -100.734 748.549 -97.9513 748.549C-96.4528 748.549 -95.4895 748.977 -95.0614 749.833C-94.4192 750.69 -94.0981 751.974 -94.0981 753.687C-94.0981 754.543 -94.2051 755.506 -94.4192 756.577C-94.4192 757.647 -94.5262 758.717 -94.7403 759.788C-95.8106 764.069 -96.988 768.35 -98.2724 772.632C-99.3428 776.699 -100.306 780.659 -101.162 784.513C-101.805 788.366 -102.126 792.219 -102.126 796.072V802.815C-102.126 806.669 -102.554 809.666 -103.41 811.806C-104.052 813.733 -105.444 814.696 -107.584 814.696C-109.725 814.696 -111.545 813.733 -113.043 811.806C-114.328 809.88 -115.719 806.669 -117.218 802.173C-120 793.61 -123.747 787.402 -128.456 783.549C-133.166 779.696 -140.123 777.769 -149.328 777.769H-162.493C-165.918 777.769 -168.808 778.626 -171.163 780.338C-173.303 782.051 -174.909 785.369 -175.979 790.292C-177.05 795.002 -177.585 802.066 -177.585 811.485V941.532C-177.585 947.526 -175.979 951.914 -172.768 954.697C-169.343 957.266 -163.456 959.728 -155.108 962.082C-153.181 962.725 -151.576 963.474 -150.291 964.33C-148.793 965.186 -148.043 966.685 -148.043 968.826C-148.043 970.324 -148.686 971.502 -149.97 972.358C-151.04 973.214 -152.432 973.642 -154.144 973.642C-158.64 973.642 -164.099 973.535 -170.521 973.321C-176.943 973.107 -183.365 972.893 -189.787 972.679C-195.995 972.465 -201.239 972.358 -205.521 972.358C-209.802 972.358 -214.94 972.465 -220.934 972.679C-226.928 972.893 -233.029 973.107 -239.237 973.321C-245.231 973.749 -250.582 973.963 -255.292 973.963ZM-11.1983 985.844C-18.4766 985.844 -25.2198 984.239 -31.4278 981.028C-37.4217 977.817 -42.2383 973.535 -45.8774 968.183C-49.5166 962.618 -51.3362 956.517 -51.3362 949.881C-51.3362 948.382 -50.3729 946.134 -48.4462 943.137C-46.3056 939.926 -44.593 938.321 -43.3086 938.321C-42.4523 938.321 -40.5257 938.856 -37.5287 939.926C-34.5318 940.783 -31.1067 941.746 -27.2534 942.816C-23.4002 943.887 -19.3329 944.957 -15.0515 946.027C-10.7702 946.884 -6.91692 947.312 -3.49182 947.312C0.78955 947.312 4.64279 946.563 8.06789 945.064C11.493 943.351 14.1688 941.104 16.0955 938.321C16.7377 937.251 17.2728 936.287 17.701 935.431C18.1291 934.361 18.3432 933.076 18.3432 931.578C18.3432 929.865 17.915 928.153 17.0588 926.44C16.2025 924.728 15.2392 922.801 14.1688 920.66L-51.3362 795.109C-53.6909 790.185 -56.7949 786.011 -60.6482 782.586C-64.2873 778.947 -69.3179 776.271 -75.74 774.558C-77.6666 773.916 -79.3792 773.167 -80.8776 772.311C-82.1621 771.454 -82.8043 769.956 -82.8043 767.815C-82.8043 766.103 -82.1621 764.925 -80.8776 764.283C-79.5932 763.427 -78.2018 762.999 -76.7033 762.999C-72.2079 762.999 -66.9632 763.106 -60.9693 763.32C-54.9753 763.534 -48.9814 763.748 -42.9875 763.962C-36.9936 764.176 -31.963 764.283 -27.8957 764.283C-23.6143 764.283 -18.1555 764.176 -11.5194 763.962C-4.88327 763.534 1.75286 763.213 8.38899 762.999C15.2392 762.785 21.019 762.678 25.7286 762.678C27.4411 762.678 29.2607 763.106 31.1873 763.962C33.328 764.818 34.3983 765.996 34.3983 767.494C34.3983 769.421 33.328 771.026 31.1873 772.311C29.2607 773.381 27.3341 774.13 25.4074 774.558C18.9854 776.057 14.3829 777.662 11.6 779.375C8.81712 781.087 7.42568 783.763 7.42568 787.402C7.42568 788.259 7.42568 789.436 7.42568 790.935C7.63974 792.433 8.06788 793.718 8.71009 794.788L49.4902 870.568C49.7042 871.424 49.9183 872.067 50.1324 872.495C50.5605 872.709 50.9886 872.816 51.4168 872.816C52.2731 872.816 53.0223 871.96 53.6645 870.247L77.105 808.274C79.2457 802.708 80.6372 798.855 81.2794 796.714C81.9216 794.36 82.2427 791.684 82.2427 788.687C82.2427 785.048 80.316 782.158 76.4628 780.017C72.8237 777.662 68.0071 776.057 62.0132 775.201C59.8725 774.772 57.7318 774.023 55.5911 772.953C53.4504 771.668 52.3801 770.063 52.3801 768.136C52.3801 766.638 53.3434 765.567 55.27 764.925C57.4107 764.069 59.5514 763.641 61.6921 763.641C68.7563 763.641 74.8573 763.855 79.995 764.283C85.1326 764.497 89.1999 764.604 92.1969 764.604C98.4048 764.604 104.078 764.283 109.215 763.641C114.567 762.999 120.561 762.678 127.197 762.678C129.552 762.678 131.693 763.106 133.619 763.962C135.76 764.604 136.83 765.996 136.83 768.136C136.83 770.277 135.867 771.775 133.94 772.632C132.228 773.274 130.408 773.916 128.482 774.558C122.059 776.271 116.815 779.054 112.747 782.907C108.68 786.546 105.576 790.828 103.435 795.751L66.8297 879.238C55.056 905.997 44.6736 927.189 35.6827 942.816C26.9059 958.443 18.7713 969.468 11.2789 975.89C3.78651 982.526 -3.70589 985.844 -11.1983 985.844ZM250.746 977.495C233.835 977.495 217.994 975.034 203.223 970.11C188.452 964.972 175.501 957.801 164.37 948.596C153.238 939.177 144.568 928.046 138.36 915.201C132.152 902.143 129.048 887.694 129.048 871.853C129.048 857.296 131.938 843.381 137.718 830.109C143.498 816.623 151.954 804.635 163.085 794.146C174.431 783.656 188.238 775.308 204.508 769.1C220.777 762.892 239.294 759.788 260.058 759.788C266.695 759.788 273.545 760.323 280.609 761.393C287.887 762.463 294.845 763.855 301.481 765.567C308.331 767.28 314.218 769.207 319.141 771.347C320.854 772.204 322.352 773.274 323.637 774.558C325.135 775.843 325.992 777.662 326.206 780.017C327.276 787.724 327.918 795.002 328.132 801.852C328.56 808.488 328.774 814.161 328.774 818.871C328.774 821.439 327.811 823.152 325.885 824.008C324.172 824.864 322.245 824.864 320.105 824.008C318.178 823.152 316.787 821.439 315.93 818.871C314.432 814.589 312.719 810.094 310.793 805.384C309.08 800.675 306.404 796.607 302.765 793.182C298.484 788.687 292.597 784.941 285.104 781.944C277.612 778.947 268.3 777.448 257.168 777.448C246.465 777.448 236.832 779.803 228.269 784.513C219.706 789.008 212.428 795.323 206.434 803.458C200.44 811.378 195.838 820.476 192.627 830.751C189.416 840.813 187.81 851.409 187.81 862.541C187.81 876.883 189.202 890.048 191.985 902.036C194.767 913.81 199.049 923.978 204.829 932.541C210.609 941.104 217.78 947.74 226.343 952.449C235.119 956.945 245.395 959.193 257.168 959.193C273.224 959.193 286.068 955.875 295.701 949.238C305.548 942.602 313.79 932.113 320.426 917.77C322.138 913.917 324.6 912.097 327.811 912.312C331.022 912.526 332.628 914.345 332.628 917.77C332.628 920.767 332.307 924.299 331.664 928.367C331.236 932.22 330.487 936.501 329.417 941.211C328.56 945.706 327.383 950.523 325.885 955.66C325.242 958.015 324.172 959.942 322.673 961.44C321.175 962.939 319.462 964.223 317.536 965.294C309.401 968.933 299.768 971.823 288.637 973.963C277.505 976.318 264.875 977.495 250.746 977.495ZM359.274 973.963C357.99 973.963 356.705 973.535 355.421 972.679C354.137 971.823 353.494 970.645 353.494 969.147C353.494 965.508 355.528 963.153 359.595 962.082C367.73 960.37 373.296 958.229 376.293 955.66C379.29 953.092 380.788 948.489 380.788 941.853V796.072C380.788 789.222 379.397 784.406 376.614 781.623C373.831 778.84 368.158 776.485 359.595 774.558C355.528 773.488 353.494 771.133 353.494 767.494C353.494 765.996 354.137 764.818 355.421 763.962C356.705 763.106 357.99 762.678 359.274 762.678C363.984 762.678 369.228 762.785 375.008 762.999C381.002 763.213 386.782 763.534 392.348 763.962C398.128 764.176 403.158 764.283 407.44 764.283C411.721 764.283 416.859 764.176 422.853 763.962C428.847 763.748 434.947 763.534 441.155 763.32C447.363 763.106 452.715 762.999 457.211 762.999C458.923 762.999 460.208 763.427 461.064 764.283C461.92 764.925 462.348 766.103 462.348 767.815C462.348 769.956 461.813 771.454 460.743 772.311C459.672 773.167 458.174 773.916 456.247 774.558C447.47 777.127 441.798 779.803 439.229 782.586C436.66 785.369 435.376 789.971 435.376 796.393V902.357C435.376 905.568 435.697 907.281 436.339 907.495C436.981 907.709 438.373 906.639 440.513 904.284L526.248 806.99C528.388 804.849 529.459 802.387 529.459 799.604V796.072C529.459 789.222 528.067 784.406 525.284 781.623C522.502 778.84 516.829 776.485 508.266 774.558C504.199 773.488 502.165 771.133 502.165 767.494C502.165 765.996 502.807 764.818 504.092 763.962C505.376 763.106 506.66 762.678 507.945 762.678C512.654 762.678 517.899 762.785 523.679 762.999C529.673 763.213 535.453 763.534 541.018 763.962C546.798 764.176 551.829 764.283 556.11 764.283C560.392 764.283 565.529 764.176 571.523 763.962C577.517 763.748 583.618 763.534 589.826 763.32C596.034 763.106 601.386 762.999 605.881 762.999C607.594 762.999 608.878 763.427 609.735 764.283C610.591 764.925 611.019 766.103 611.019 767.815C611.019 769.956 610.484 771.454 609.413 772.311C608.343 773.167 606.845 773.916 604.918 774.558C596.141 777.127 590.468 779.803 587.9 782.586C585.331 785.369 584.046 789.971 584.046 796.393V941.532C584.046 947.526 585.438 951.914 588.221 954.697C591.004 957.266 596.569 959.728 604.918 962.082C606.845 962.725 608.343 963.474 609.413 964.33C610.484 965.186 611.019 966.685 611.019 968.826C611.019 970.324 610.591 971.502 609.735 972.358C608.878 973.214 607.594 973.642 605.881 973.642C601.386 973.642 596.034 973.535 589.826 973.321C583.618 973.107 577.517 972.893 571.523 972.679C565.529 972.465 560.392 972.358 556.11 972.358C551.829 972.358 546.798 972.465 541.018 972.679C535.453 972.893 529.673 973.107 523.679 973.321C517.899 973.749 512.654 973.963 507.945 973.963C506.66 973.963 505.376 973.535 504.092 972.679C502.807 971.823 502.165 970.645 502.165 969.147C502.165 965.508 504.199 963.153 508.266 962.082C516.401 960.37 521.966 958.229 524.963 955.66C527.96 953.092 529.459 948.489 529.459 941.853V834.926C529.459 832.143 528.602 831.608 526.89 833.32L439.871 932.22C438.373 933.718 437.195 935.11 436.339 936.394C435.697 937.679 435.376 939.391 435.376 941.532C435.376 947.526 436.767 951.914 439.55 954.697C442.333 957.266 447.899 959.728 456.247 962.082C458.174 962.725 459.672 963.474 460.743 964.33C461.813 965.186 462.348 966.685 462.348 968.826C462.348 970.324 461.92 971.502 461.064 972.358C460.208 973.214 458.923 973.642 457.211 973.642C452.715 973.642 447.363 973.535 441.155 973.321C434.947 973.107 428.847 972.893 422.853 972.679C416.859 972.465 411.721 972.358 407.44 972.358C403.158 972.358 398.128 972.465 392.348 972.679C386.782 972.893 381.002 973.107 375.008 973.321C369.228 973.749 363.984 973.963 359.274 973.963Z" fill="#2A006D"></path> </g> <defs> <clipPath id="clip0_14_57"> <rect width="1754" height="1240" fill="white"></rect> </clipPath> </defs> </svg> 